<?xml version="1.0" encoding="UTF-8" standalone="no"?>
<svg
   id="Layer_1"
   data-name="Layer 1"
   viewBox="0 0 811.89298 274"
   version="1.1"
   sodipodi:docname="keyFinal-horizonal.svg"
   width="811.89301"
   height="274"
   inkscape:version="1.2.1 (9c6d41e4, 2022-07-14)"
   xmlns:inkscape="http://www.inkscape.org/namespaces/inkscape"
   xmlns:sodipodi="http://sodipodi.sourceforge.net/DTD/sodipodi-0.dtd"
   xmlns="http://www.w3.org/2000/svg"
   xmlns:svg="http://www.w3.org/2000/svg"
   xmlns:rdf="http://www.w3.org/1999/02/22-rdf-syntax-ns#"
   xmlns:cc="http://creativecommons.org/ns#"
   xmlns:dc="http://purl.org/dc/elements/1.1/">
  <sodipodi:namedview
     id="namedview39"
     pagecolor="#505050"
     bordercolor="#eeeeee"
     borderopacity="1"
     inkscape:showpageshadow="0"
     inkscape:pageopacity="0"
     inkscape:pagecheckerboard="0"
     inkscape:deskcolor="#505050"
     showgrid="false"
     inkscape:zoom="0.3492239"
     inkscape:cx="184.69526"
     inkscape:cy="186.12701"
     inkscape:window-width="1309"
     inkscape:window-height="456"
     inkscape:window-x="0"
     inkscape:window-y="23"
     inkscape:window-maximized="0"
     inkscape:current-layer="Layer_1" />
  <defs
     id="defs4">
    <style
       id="style2">.cls-1{fill:#c6c6c6;}.cls-2{fill:#ddd;}.cls-3{fill:#fff;}.cls-4{fill:#c9c9c9;}</style>
  </defs>
  <title
     id="title6">vector d4 (1)</title>
  <path
     class="cls-1"
     d="m 199.72044,51.88 -3.4,-6 c -6.38,-11.67 -18.11,-18.92 -30.6,-18.92 -12.33,0 -24.62,8.82 -31.34,22.53 l -2.56,5.1 c 0.38,0.16 0.78,0.31 1.16,0.48 4.16,-15.24 17.25,-26.1 32.48,-26.1 18.66,0 33.83,16.44 33.83,36.64 a 39.19,39.19 0 0 1 -1.55,11 41.42,41.42 0 0 1 6.92,-0.58 39,39 0 0 1 5.8,77.55 42.58,42.58 0 0 1 2.77,15.15 c 0,23.18 -18.66,42 -41.6,42 a 41.49,41.49 0 0 1 -39.67,-29.44 37.78,37.78 0 0 1 -14.35,2.84 c -21.220003,0 -38.500003,-17.62 -38.500003,-39.3 a 39.75,39.75 0 0 1 20.72,-34.83 32.26,32.26 0 0 1 20.570003,-57.46 33,33 0 0 1 5.79,0.52 L 46.120437,8.1899996 A 154.63,154.63 0 0 0 6.1204373,112.35 c 0,85.79 69.7999997,155.6 155.6100027,155.6 85.81,0 155.6,-69.81 155.6,-155.6 a 154.86,154.86 0 0 0 -40.49,-104.7100004 z m -38,210 c -82.440003,0 -149.520003,-67.07 -149.520003,-149.5 a 148.44,148.44 0 0 1 35.27,-96.42 l 59.000003,33.07 a 38.22,38.22 0 0 0 -16.210003,60 46.06,46.06 0 0 0 -17.24,35.85 c 0,25 20,45.4 44.590003,45.4 a 44.07,44.07 0 0 0 10.74,-1.34 47.49,47.49 0 0 0 43.28,27.94 c 26.29,0 47.7,-21.61 47.7,-48.14 a 48.94,48.94 0 0 0 -1.18,-10.67 45.23,45.23 0 0 0 32,-43.05 c 0,-24.68 -20.11,-44.79 -44.94,-45.08 0.14,-1.41 0.2,-2.84 0.2,-4.29 a 45.56,45.56 0 0 0 -1,-9.43 l 3.64,-2.09 67.51,-38.72 a 148.66,148.66 0 0 1 35.68,96.94 c -0.02,82.43 -67.1,149.5 -149.53,149.5 z"
     id="path8" />
  <path
     d="m 202.00044,43.55 -0.34,-0.56 c -7.45,-13.62 -21.24,-22.1 -35.93,-22.1 -14.69,0 -29.09,10.19 -36.8,25.91 l -0.32,0.64 L 44.920437,0.54 A 160.68,160.68 0 0 0 4.3731389e-4,112.35 C 4.3731389e-4,201.49 72.560437,274 161.71044,274 a 161.88,161.88 0 0 0 148.45,-97.64 c 0.79,-1.77 1.54,-3.58 2.23,-5.39 a 160.67,160.67 0 0 0 11,-58.62 162.55,162.55 0 0 0 -1.55,-22.46 c -0.67,-4.84 -1.55,-9.61 -2.67,-14.34 A 160.69,160.69 0 0 0 277.96044,0 Z m 105,33.23 c 0.17,0.7 0.34,1.39 0.49,2.08 a 150.61,150.61 0 0 1 3.75,33.49 c 0,82.42 -67.08,149.5 -149.5,149.5 -82.420003,0 -149.520003,-67.08 -149.520003,-149.5 a 148.48,148.48 0 0 1 35.27,-96.43 l 59.000003,33.09 a 38.19,38.19 0 0 0 -16.200003,60 46,46 0 0 0 -17.25,35.84 c 0,25 20,45.4 44.600003,45.4 a 44.61,44.61 0 0 0 10.73,-1.34 47.48,47.48 0 0 0 43.27,27.94 c 26.31,0 47.7,-21.61 47.7,-48.14 a 48.77,48.77 0 0 0 -1.17,-10.66 45.22,45.22 0 0 0 32,-43.05 c 0,-24.68 -20.11,-44.79 -44.94,-45.09 0.13,-1.42 0.21,-2.85 0.21,-4.29 a 44.89,44.89 0 0 0 -1,-9.43 l 3.64,-2.09 67.48,-38.68 a 148.47,148.47 0 0 1 31.41,61.36 z m -170.14,-13.57 a 1.87,1.87 0 0 0 1.08,-1.45 c 1.62,-15.22 13.52,-26.66 27.52,-26.66 15.27,0 27.75,13.68 27.75,30.54 a 33.44,33.44 0 0 1 -2.36,12.36 3.91,3.91 0 0 0 0.77,4.2 3.8,3.8 0 0 0 4,1.14 33.66,33.66 0 0 1 9,-1.2 33.16,33.16 0 0 1 33.32,32.86 c 0,18.14 -15,32.89 -33.35,32.89 a 2.11,2.11 0 0 0 -1.9,1.08 2.7,2.7 0 0 0 -0.32,1.14 2.14,2.14 0 0 0 0.32,1.09 36.5,36.5 0 0 1 4.44,17.51 35.44,35.44 0 0 1 -70.43,6.16 1.92,1.92 0 0 0 -1.09,-1.4 2.11,2.11 0 0 0 -1.71,0.07 31.9,31.9 0 0 1 -16.28,4.52 c -17.890003,0 -32.410003,-14.88 -32.410003,-33.21 0,-14.69 9.61,-27.82 23.370003,-31.94 a 2.27,2.27 0 0 0 1.64,-2.11 2.5,2.5 0 0 0 -0.76,-1.93 2.05,2.05 0 0 0 -0.58,-0.37 26.27,26.27 0 1 1 26.15,-45.42 1.83,1.83 0 0 0 1.8,0.13 z"
     id="path10" />
  <path
     d="m 275.56044,15.41 a 148.66,148.66 0 0 1 35.68,96.94 c 0,82.43 -67.08,149.5 -149.51,149.5 -82.430003,0 -149.520003,-67.07 -149.520003,-149.5 a 148.44,148.44 0 0 1 35.27,-96.42 L 106.48044,49 a 38.22,38.22 0 0 0 -16.210003,60 46.06,46.06 0 0 0 -17.24,35.85 c 0,25 20,45.4 44.590003,45.4 a 44.07,44.07 0 0 0 10.74,-1.34 47.49,47.49 0 0 0 43.28,27.94 c 26.29,0 47.7,-21.61 47.7,-48.14 a 48.94,48.94 0 0 0 -1.18,-10.67 45.23,45.23 0 0 0 32,-43.05 c 0,-24.68 -20.11,-44.79 -44.94,-45.08 0.14,-1.41 0.2,-2.84 0.2,-4.29 a 45.56,45.56 0 0 0 -1,-9.43 l 3.64,-2.09 z"
     id="path12" />
  <path
     class="cls-2"
     d="m 231.85044,115 a 27.06,27.06 0 0 1 -27.29,26.82 8.12,8.12 0 0 0 -7.26,4.27 8.63,8.63 0 0 0 -1.06,4.05 8.05,8.05 0 0 0 1.12,4.1 30.58,30.58 0 0 1 3.65,14.49 29.36,29.36 0 0 1 -58.34,5.15 8.09,8.09 0 0 0 -4.51,-5.88 l -0.18,-0.08 a 8.07,8.07 0 0 0 -6.87,0.27 l -0.17,0.09 -0.17,0.1 a 25.77,25.77 0 0 1 -13.16,3.62 c -14.51,0 -26.310003,-12.17 -26.310003,-27.12 a 27.24,27.24 0 0 1 19.000003,-26.11 8.32,8.32 0 0 0 6,-7.57 v -0.52 a 8.38,8.38 0 0 0 -4.91,-7.69 20.18,20.18 0 1 1 20.17,-34.87 8,8 0 0 0 12.38,-5.79 c 1.31,-12 10.55,-21.14 21.49,-21.14 11.94,0 21.65,11 21.65,24.45 a 27.51,27.51 0 0 1 -1.93,10.11 10.39,10.39 0 0 0 -0.72,3.77 10.09,10.09 0 0 0 12.92,9.64 27.36,27.36 0 0 1 34.5,25.84 z"
     id="path14" />
  <path
     d="m 97.390437,144.87 a 21.11,21.11 0 0 1 14.620003,-20.25 14.46,14.46 0 0 0 10.37,-13 v -0.92 a 14.45,14.45 0 0 0 -8.42,-13.209999 14.09,14.09 0 1 1 14.2,-24.290001 14.06,14.06 0 0 0 21.86,-10.2 c 1,-9 7.63,-15.76 15.44,-15.76 8.58,0 15.55,8.24 15.55,18.36 a 21.34,21.34 0 0 1 -1.49,7.85 16.48,16.48 0 0 0 -1.15,6 16.18,16.18 0 0 0 20.62,15.55 20.79,20.79 0 1 1 5.57,40.73 14.32,14.32 0 0 0 -12.62,7.45 l -0.05,0.1 -0.05,0.1 a 14.45,14.45 0 0 0 -1.7,6.76 14.19,14.19 0 0 0 1.9,7.07 24.4,24.4 0 0 1 2.87,11.52 23.57,23.57 0 0 1 -23.32,23.76 23.33,23.33 0 0 1 -22.92,-19.63 v -0.12 -0.12 a 14.12,14.12 0 0 0 -8,-10.2 l -0.17,-0.08 -0.19,-0.08 a 14.2,14.2 0 0 0 -12,0.48 l -0.33,0.17 -0.33,0.19 a 19.57,19.57 0 0 1 -10,2.79 c -11.15,0 -20.220003,-9.43 -20.220003,-21 z m -12.18,0 c 0,18.33 14.52,33.21 32.400003,33.21 a 31.81,31.81 0 0 0 16.28,-4.51 2.08,2.08 0 0 1 1.73,-0.08 1.92,1.92 0 0 1 1.08,1.41 35.45,35.45 0 0 0 70.44,-6.17 36.51,36.51 0 0 0 -4.45,-17.51 2.06,2.06 0 0 1 -0.32,-1.08 2.46,2.46 0 0 1 0.32,-1.14 2.09,2.09 0 0 1 1.91,-1.08 32.9,32.9 0 1 0 -9,-64.59 4,4 0 0 1 -5.07,-3.81 4.18,4.18 0 0 1 0.3,-1.54 33.51,33.51 0 0 0 2.35,-12.34 c 0,-16.87 -12.46,-30.55 -27.74,-30.55 -14,0 -25.9,11.46 -27.56,26.66 a 1.84,1.84 0 0 1 -1.08,1.47 1.75,1.75 0 0 1 -1.78,-0.13 26.3,26.3 0 1 0 -26.16,45.43 2.31,2.31 0 0 1 1.35,2.15 v 0.15 a 2.25,2.25 0 0 1 -1.64,2.1 33.36,33.36 0 0 0 -23.370003,32 z"
     id="path16" />
  <path
     class="cls-3"
     d="m 165.46044,35.09 c 15.28,0 27.74,13.68 27.74,30.55 a 33.51,33.51 0 0 1 -2.35,12.36 3.91,3.91 0 0 0 0.77,4.2 3.81,3.81 0 0 0 4,1.15 33,33 0 1 1 9,64.59 2.09,2.09 0 0 0 -1.91,1.08 2.46,2.46 0 0 0 -0.32,1.14 2.06,2.06 0 0 0 0.32,1.08 36.51,36.51 0 0 1 4.45,17.51 35.45,35.45 0 0 1 -70.44,6.17 1.92,1.92 0 0 0 -1.08,-1.41 2.08,2.08 0 0 0 -1.73,0.08 31.81,31.81 0 0 1 -16.28,4.51 c -17.880003,0 -32.400003,-14.88 -32.400003,-33.21 a 33.36,33.36 0 0 1 23.370003,-32 2.25,2.25 0 0 0 1.64,-2.1 2.32,2.32 0 0 0 -1.34,-2.3 26.27,26.27 0 1 1 26.16,-45.43 1.75,1.75 0 0 0 1.78,0.13 1.84,1.84 0 0 0 1.08,-1.47 c 1.64,-15.17 13.54,-26.63 27.54,-26.63 z"
     id="path18" />
  <path
     d="m 402.98044,108.76 c -5.39,7.06 -8.41,10.7 -12.8,9.92 -2.86,-0.51 -5.15,-4.76 -8.05,-10.16 -7.3,-13.57 -19.28,-35.88 -62.95,-33 -2,0.13 -4,0.3 -6.1,0.54 -0.1,0 -0.21,0 -0.32,0 l -5.79,0.65 -2.54,0.3 3,1.78 4.2,2.48 c 0,0 1.19,0.71 3,2 a 58.3,58.3 0 0 1 7.22,6.5 c 6.95,7.340001 14.88,19.43 14.88,36.33 0,26.92 -20.2,42 -24.34,44.75 -0.45,0.33 -0.73,0.48 -0.75,0.5 l -7.08,4.36 5.63,0.65 2.6,0.3 c 48.93,5.64 61.72,-18.16 69.37,-32.39 2.9,-5.39 5.19,-9.65 8.05,-10.15 4.39,-0.79 7.41,2.85 12.8,9.89 5.9,7.67 14,18.18 28.94,24 16.32,6.35 34.58,5.09 47.66,-3.29 a 41.1,41.1 0 0 0 13.69,-14.5 c 3.39,-6 5.93,-13.71 6.53,-23.68 v -0.33 c -0.6,-10 -3.14,-17.7 -6.51,-23.65 A 41.43,41.43 0 0 0 479.56044,88 c -13.08,-8.38 -31.34,-9.63 -47.66,-3.28 -14.95,5.86 -23.02,16.37 -28.92,24.04 z m 64.69,-20.18 a 40,40 0 0 1 5.17,2.11 36.4,36.4 0 0 1 3.72,2.07 35.49,35.49 0 0 1 10.1,9.81 c 4.38,6.36 6.94,14.41 7.54,23.82 -0.6,9.42 -3.16,17.47 -7.54,23.84 a 35.65,35.65 0 0 1 -10.1,9.77 38.44,38.44 0 0 1 -7.38,3.66 44.31,44.31 0 0 1 -5.41,1.58 51.49,51.49 0 0 1 -29.83,-2.46 c -13.5,-5.25 -20.72,-14.64 -26.51,-22.18 -5.53,-7.2 -10.29,-13.42 -18.22,-12 -3.19,0.58 -5.53,2.65 -7.6,5.56 a 73,73 0 0 0 -4.43,7.47 c -7,13 -17.38,32.35 -56.5,30.11 8.19,-7 21.65,-22 21.65,-45.51 0,-23.51 -13.35,-38.25 -21.56,-45.16 39.05,-2.22 49.41,17.080001 56.41,30.11 l 0.66,1.22 c 1.06,1.94 2.09,3.77 3.17,5.39 a 0.15,0.15 0 0 1 0,0.08 c 2.22,3.3 4.69,5.73 8.16,6.34 7.93,1.4 12.71,-4.81 18.22,-12 5.8,-7.54 13,-16.95 26.51,-22.2 11.28,-4.4 23.47,-4.81 33.77,-1.43 z"
     id="path20" />
  <path
     d="m 321.85044,89.89 c 6.95,7.340001 14.88,19.43 14.88,36.33 0,26.92 -20.2,42 -24.34,44.75 a 160.67,160.67 0 0 0 11,-58.62 162.55,162.55 0 0 0 -1.54,-22.46 z"
     id="path22" />
  <path
     d="m 467.67044,88.58 c -2.8,9.860001 -17.49,35 -41.54,35 v 5.6 c 1.16,0 2.28,-0.06 3.4,-0.15 3.31,0.61 27.56,6.08 34.24,36.21 a 51.49,51.49 0 0 1 -29.83,-2.46 c -13.5,-5.25 -20.72,-14.64 -26.51,-22.18 -5.53,-7.2 -10.29,-13.42 -18.22,-12 -3.19,0.58 -5.53,2.65 -7.6,5.56 3.49,-7.54 4.27,-7.6 4.29,-7.6 0.02,0 -2.41,-3.86 -4.85,-8.69 2.22,3.3 4.69,5.73 8.16,6.34 7.93,1.4 12.71,-4.81 18.22,-12 5.8,-7.54 13,-16.95 26.51,-22.2 11.24,-4.4 23.43,-4.81 33.73,-1.43 z"
     id="path24" />
  <path
     class="cls-4"
     d="m 472.84044,90.69 a 36.4,36.4 0 0 1 3.72,2.07 35.49,35.49 0 0 1 10.1,9.81 c 4.38,6.36 6.94,14.41 7.54,23.82 -0.6,9.42 -3.16,17.47 -7.54,23.84 a 35.65,35.65 0 0 1 -10.1,9.77 38.44,38.44 0 0 1 -7.38,3.66 c -5.13,-22.37 -19.43,-32.52 -29.25,-37 18.37,-6.77 29.8,-25.89 32.91,-35.97 z"
     id="path26" />
  <path
     d="m 617.77044,86 h 162 c 12.51,0 23.79,4.92 29.49,23.11 a 57.93,57.93 0 0 1 0,34.53 c -5.69,18.19 -17,23.12 -29.49,23.12 h -162 c -27.39,0 -30.82,-29.11 -46.51,-29.11 -15.69,0 -16,12.57 -16,12.57 h -68.6 c 4.38,-6.37 6.94,-14.42 7.54,-23.84 -0.6,-9.41 -3.16,-17.46 -7.54,-23.82 h 68.62 c 0,0 0.28,12.56 16,12.56 15.72,0 19.1,-29.12 46.49,-29.12 z"
     id="path28" />
  <path
     d="m 630.90044,161.93 v 34.81 h -43.09 v 64.5 h 67.35 c 0,0 -17.47,-2.94 -13.62,-15.5 3.85,-12.56 17.76,-10.47 17.76,-10.47 0,0 -16.44,-9.8 -10.59,-25.35 5.85,-15.55 27.14,-12 34.85,2.66 0,0 -5.71,-16.12 7,-25.4 12.71,-9.28 41.81,-0.71 26.11,28.4 0,0 16.18,-16.13 25.31,-1.71 9.13,14.42 -8,23.68 -8,23.68 0,0 18.32,-5.32 22.27,7.5 3.41,11.07 -16.27,16.19 -16.27,16.19 h 67.35 v -63.36 h -48.29 v -45.37 z"
     id="path30" />
  <path
     d="m 468.12044,86.45 5.56,0.62 a 19.17,19.17 0 0 1 -0.84,3.62 c -3.11,10.08 -14.54,29.2 -32.91,36 a 39.53,39.53 0 0 1 -10.37,2.31 c -1.12,0.09 -2.24,0.15 -3.4,0.15 v -5.6 c 24,0 38.74,-25.149999 41.54,-35 a 14.67,14.67 0 0 0 0.42,-2.1 z"
     id="path32" />
  <path
     d="m 430.04044,123.44 a 42.5,42.5 0 0 1 9.89,3.25 c 9.82,4.46 24.12,14.61 29.25,37 0.23,1 0.45,2.07 0.64,3.15 l -5.53,1 c -0.15,-0.87 -0.33,-1.73 -0.52,-2.56 -6.68,-30.13 -30.93,-35.6 -34.24,-36.21 a 1.94,1.94 0 0 0 -0.33,-0.06 z"
     id="path34" />
  <path
     class="cls-4"
     d="m 377.18044,111.17 0.66,1.22 c 1.06,1.94 2.09,3.77 3.17,5.39 a 0.15,0.15 0 0 1 0,0.08 c 2.44,4.83 4.85,8.69 4.85,8.69 0,0 -0.8,0.06 -4.29,7.6 a 73,73 0 0 0 -4.43,7.47 c -7,13 -17.38,32.35 -56.5,30.11 8.19,-7 21.65,-22 21.65,-45.51 0,-23.51 -13.35,-38.25 -21.56,-45.16 39.09,-2.22 49.45,17.080001 56.45,30.11 z"
     id="path36" />
  <metadata
     id="metadata216">
    <rdf:RDF>
      <cc:Work
         rdf:about="">
        <dc:title>vector d4 (1)</dc:title>
      </cc:Work>
    </rdf:RDF>
  </metadata>
</svg>
